<svg width="67" height="71" viewBox="0 0 67 71" fill="none" xmlns="http://www.w3.org/2000/svg">
<path d="M50.3339 0.226562C52.6198 0.226562 54.7729 0.686997 56.793 1.60787C58.8131 2.52874 60.5807 3.78447 62.0958 5.37506C63.6109 6.96565 64.8071 8.82134 65.6842 10.9421C66.5614 13.0629 67 15.3232 67 17.7231V52.7161C67 55.1159 66.5614 57.3902 65.6842 59.5389C64.8071 61.6876 63.6109 63.5572 62.0958 65.1478C60.5807 66.7384 58.8131 67.9942 56.793 68.915C54.7729 69.8359 52.6198 70.2963 50.3339 70.2963H16.922C14.636 70.2963 12.483 69.8359 10.4628 68.915C8.44271 67.9942 6.6751 66.7384 5.16 65.1478C3.6449 63.5572 2.44877 61.6876 1.5716 59.5389C0.694441 57.3902 0.255859 55.1159 0.255859 52.7161V17.7231C0.255859 15.3232 0.694441 13.0629 1.5716 10.9421C2.44877 8.82134 3.6449 6.96565 5.16 5.37506C6.6751 3.78447 8.44271 2.52874 10.4628 1.60787C12.483 0.686997 14.636 0.226562 16.922 0.226562H50.3339ZM23.2216 26.5132H14.8487V54.9764H23.2216V26.5132ZM19.075 24.2529C20.1914 24.2529 21.1616 23.8343 21.9856 22.9971C22.8096 22.16 23.2216 21.1275 23.2216 19.8997C23.2216 18.6719 22.8096 17.6394 21.9856 16.8022C21.1616 15.9651 20.1914 15.5465 19.075 15.5465C17.9054 15.5465 16.9087 15.9651 16.0847 16.8022C15.2607 17.6394 14.8487 18.6719 14.8487 19.8997C14.8487 21.1275 15.2607 22.16 16.0847 22.9971C16.9087 23.8343 17.9054 24.2529 19.075 24.2529ZM52.4072 38.4845C52.4072 36.4753 51.8756 34.508 50.8123 32.5826C49.7491 30.6571 48.3669 29.1921 46.6657 28.1875C45.1241 27.2945 43.3299 26.8201 41.2832 26.7643C39.2364 26.7085 37.3891 27.0713 35.7411 27.8526V26.5132H27.3682V54.9764H35.7411V37.5636L39.17 35.8056C39.5953 35.5824 40.1801 35.4707 40.9243 35.4707C41.6686 35.4707 42.2268 35.6103 42.5989 35.8893C42.9179 36.0567 43.2368 36.4195 43.5558 36.9776C43.8748 37.5357 44.0343 38.038 44.0343 38.4845V54.9764H52.4072V38.4845Z" fill="white"/>
</svg>
