<svg width="68" height="58" viewBox="0 0 68 58" fill="none" xmlns="http://www.w3.org/2000/svg">
<path d="M67.6362 6.94208C65.6626 9.95583 63.375 12.4045 60.7734 14.2881V16.2659C60.7734 20.9749 59.9212 25.7545 58.2167 30.6048C56.5122 35.455 54.0227 39.8344 50.7483 43.7428C47.4739 47.6513 43.4146 50.8534 38.5702 53.3492C33.7259 55.8449 28.1639 57.0928 21.8842 57.0928C17.937 57.0928 14.214 56.5277 10.7153 55.3976C7.21663 54.2674 3.94222 52.6664 0.89209 50.5944C1.43035 50.6886 1.96861 50.7592 2.50687 50.8063C3.04513 50.8534 3.58338 50.877 4.12164 50.877C7.3512 50.877 10.4238 50.3119 13.3393 49.1817C16.2549 48.0516 18.8789 46.5447 21.2114 44.6611C18.1612 44.5669 15.4924 43.6016 13.2048 41.7651C10.9172 39.9286 9.32481 37.5505 8.42772 34.6309C8.87627 34.8193 9.30239 34.9135 9.70608 34.9135H10.9844C12.2404 34.9135 13.4066 34.7722 14.4831 34.4897C11.3433 33.7362 8.7417 32.0645 6.67837 29.4746C4.61505 26.8847 3.58338 23.8474 3.58338 20.3627V20.2214C4.57019 20.6923 5.557 21.0926 6.54381 21.4222C7.53062 21.7519 8.60714 21.9167 9.77336 21.9167C7.97917 20.5981 6.52138 18.9029 5.40001 16.831C4.27864 14.759 3.71795 12.4987 3.71795 10.05C3.71795 7.41298 4.34592 5.01139 5.60186 2.84526C9.01083 7.17753 13.1375 10.6857 17.9818 13.3698C22.8261 16.054 28.0742 17.5373 33.7259 17.8198C33.4568 16.6897 33.3222 15.6066 33.3222 14.5706C33.3222 12.5929 33.681 10.7328 34.3987 8.99049C35.1164 7.24816 36.1032 5.71774 37.3591 4.39922C38.6151 3.08071 40.0729 2.04473 41.7325 1.29129C43.3921 0.537852 45.1639 0.161133 47.0478 0.161133C49.0214 0.161133 50.8605 0.561397 52.565 1.36193C54.2694 2.16245 55.7497 3.26907 57.0056 4.68176C58.6204 4.39922 60.1454 3.95187 61.5808 3.3397C63.0162 2.72753 64.4067 1.99764 65.7523 1.15002C64.6758 4.63467 62.6573 7.3188 59.6969 9.20239C62.5676 8.73149 65.214 7.97806 67.6362 6.94208Z" fill="white"/>
</svg>
