<svg width="68" height="71" viewBox="0 0 68 71" fill="none" xmlns="http://www.w3.org/2000/svg">
<path d="M33.8601 0.226562C38.4741 0.226562 42.8097 1.14524 46.8669 2.98258C50.924 4.81993 54.4641 7.32541 57.4871 10.499C60.51 13.6726 62.8966 17.3751 64.6467 21.6066C66.3969 25.8381 67.2719 30.3758 67.2719 35.2197C67.2719 40.0636 66.3969 44.6152 64.6467 48.8745C62.8966 53.1338 60.51 56.8503 57.4871 60.0239C54.4641 63.1975 50.924 65.703 46.8669 67.5403C42.8097 69.3777 38.4741 70.2963 33.8601 70.2963C29.2461 70.2963 24.9238 69.3777 20.8931 67.5403C16.8625 65.703 13.3357 63.1975 10.3127 60.0239C7.28975 56.8503 4.90319 53.1338 3.15305 48.8745C1.4029 44.6152 0.527832 40.0636 0.527832 35.2197C0.527832 30.3758 1.4029 25.8381 3.15305 21.6066C4.90319 17.3751 7.28975 13.6726 10.3127 10.499C13.3357 7.32541 16.8625 4.81993 20.8931 2.98258C24.9238 1.14524 29.2461 0.226562 33.8601 0.226562ZM46.4293 15.51H39.3492C37.9703 15.51 36.6975 15.7605 35.5307 16.2616C34.3639 16.7627 33.343 17.4308 32.468 18.266C31.5929 19.1011 30.9167 20.0476 30.4394 21.1055C29.9621 22.1634 29.7234 23.2212 29.7234 24.2791V28.7055H23.4388V37.3911H29.7234V54.9294H38.0764V37.3911H44.2814V28.7055H38.0764V26.4505C38.0764 25.7824 38.3283 25.2535 38.8321 24.8637C39.3359 24.474 39.7735 24.2791 40.1447 24.2791H46.4293V15.51Z" fill="white"/>
</svg>
