<svg width="67" height="71" viewBox="0 0 67 71" fill="none" xmlns="http://www.w3.org/2000/svg">
<path d="M44.6556 35.3033C44.6556 34.3545 44.5227 33.322 44.2569 32.2058H47.606V49.1163C47.606 49.5628 47.4598 49.9256 47.1674 50.2046C46.875 50.4837 46.5162 50.6232 46.0909 50.6232H19.8558C19.4305 50.6232 19.0849 50.4837 18.8191 50.2046C18.5533 49.9256 18.4204 49.5628 18.4204 49.1163V32.2058H21.6898C21.424 33.322 21.2911 34.3545 21.2911 35.3033C21.2911 36.9776 21.5968 38.5682 22.2082 40.0751C22.8195 41.582 23.6568 42.8795 24.72 43.9678C25.7833 45.0561 27.0326 45.9212 28.4679 46.563C29.9033 47.2048 31.4184 47.5257 33.0132 47.5257C34.6081 47.5257 36.1232 47.2048 37.5585 46.563C38.9939 45.9212 40.2299 45.0561 41.2665 43.9678C42.3032 42.8795 43.1272 41.582 43.7385 40.0751C44.3499 38.5682 44.6556 36.9776 44.6556 35.3033ZM33.0132 42.9214C32.0032 42.9214 31.0462 42.7261 30.1425 42.3354C29.2388 41.9447 28.4546 41.4006 27.7901 40.7029C27.1256 40.0053 26.6073 39.1961 26.2351 38.2752C25.863 37.3543 25.6769 36.3637 25.6769 35.3033C25.6769 34.2429 25.863 33.2383 26.2351 32.2896C26.6073 31.3408 27.1256 30.5176 27.7901 29.8199C28.4546 29.1223 29.2388 28.5782 30.1425 28.1875C31.0462 27.7968 32.0032 27.6015 33.0132 27.6015C34.0233 27.6015 34.9669 27.7968 35.8441 28.1875C36.7212 28.5782 37.4921 29.1223 38.1566 29.8199C38.8211 30.5176 39.3394 31.3408 39.7116 32.2896C40.0837 33.2383 40.2697 34.2429 40.2697 35.3033C40.2697 36.3637 40.0837 37.3543 39.7116 38.2752C39.3394 39.1961 38.8211 40.0053 38.1566 40.7029C37.4921 41.4006 36.7212 41.9447 35.8441 42.3354C34.9669 42.7261 34.0233 42.9214 33.0132 42.9214ZM46.0909 19.9834C46.5162 19.9834 46.875 20.1229 47.1674 20.402C47.4598 20.681 47.606 21.0438 47.606 21.4903V26.0946C47.606 26.5411 47.4598 26.9039 47.1674 27.1829C46.875 27.462 46.5162 27.6015 46.0909 27.6015H41.7051C41.2798 27.6015 40.9343 27.462 40.6685 27.1829C40.4027 26.9039 40.2697 26.5411 40.2697 26.0946V21.4903C40.2697 21.0438 40.4027 20.681 40.6685 20.402C40.9343 20.1229 41.2798 19.9834 41.7051 19.9834H46.0909ZM49.9983 0.226562C52.2842 0.226562 54.4505 0.686997 56.4973 1.60787C58.544 2.52874 60.3249 3.78447 61.84 5.37506C63.3551 6.96565 64.5512 8.82134 65.4284 10.9421C66.3055 13.0629 66.7441 15.3232 66.7441 17.7231V52.7161C66.7441 55.1159 66.3055 57.3902 65.4284 59.5389C64.5512 61.6876 63.3551 63.5572 61.84 65.1478C60.3249 66.7384 58.544 67.9942 56.4973 68.915C54.4505 69.8359 52.2842 70.2963 49.9983 70.2963H16.6661C14.3802 70.2963 12.2271 69.8359 10.207 68.915C8.18685 67.9942 6.41924 66.7384 4.90414 65.1478C3.38904 63.5572 2.19291 61.6876 1.31574 59.5389C0.438581 57.3902 0 55.1159 0 52.7161V17.7231C0 15.3232 0.438581 13.0629 1.31574 10.9421C2.19291 8.82134 3.38904 6.96565 4.90414 5.37506C6.41924 3.78447 8.18685 2.52874 10.207 1.60787C12.2271 0.686997 14.3802 0.226562 16.6661 0.226562H49.9983ZM51.9918 19.9834C51.9918 18.6998 51.5665 17.6115 50.716 16.7185C49.8654 15.8255 48.8287 15.379 47.606 15.379H18.4204C17.1977 15.379 16.1611 15.8255 15.3105 16.7185C14.4599 17.6115 14.0346 18.6998 14.0346 19.9834V50.6232C14.0346 51.9069 14.4599 52.9952 15.3105 53.8881C16.1611 54.7811 17.1977 55.2276 18.4204 55.2276H47.606C48.8287 55.2276 49.8654 54.7811 50.716 53.8881C51.5665 52.9952 51.9918 51.9069 51.9918 50.6232V19.9834Z" fill="white"/>
</svg>
